<svg id="Layer_1" data-name="Layer 1" xmlns="http://www.w3.org/2000/svg" viewBox="0 0 171.16 171.17"><defs><style>.cls-1{fill:#ff4d4f;}</style></defs><title>shop</title><path class="cls-1" d="M171.16,85.74c0,47.64-38.33,85.47-86.5,85.42C38,171.1,0,132.58,0,85.41a85.58,85.58,0,1,1,171.16.33Zm-63-33.7c-2.57-14.08-5.35-27.39-13-39C88,2.38,80,2.41,72.85,13.11,65.23,24.55,62.46,37.68,59.9,52ZM59.87,119.12c.59,3.24.85,5,1.24,6.81,2.59,11.71,5.34,23.41,12.61,33.3,6.69,9.1,13.9,9.15,20.48.05,8.5-11.77,11.27-25.59,13.92-40.16ZM57.14,82.66h53.72c-.64-8.73-1.26-17.07-1.85-25.14H59C58.39,65.59,57.8,74,57.18,82.66Zm0,5.7c.65,9,1.26,17.32,1.84,25.27h50.19c.57-8.54,1.11-16.87,1.67-25.27Zm-5.29-5.64c.68-9,1.34-17.77,2-26.59L28.78,50l-6,32.77Zm0,5.7H22.79l6.1,32.8,25-6.21c-.68-8.76-1.32-17.48-2-26.59Zm64.29-5.73h29.13c-2-10.93-3.91-21.32-5.83-31.78l-25.16,5.7c.62,8.73,1.29,17.24,1.87,26.08Zm0,5.76c-.63,8.88-1.25,17.44-1.87,26.11l25.3,5.68c1.92-10.66,3.77-21,5.71-31.79ZM97.71,7.59C107.3,21,110.35,36,113.55,51.34c6.11-1.32,11.78-2.51,17.43-3.81,1.75-.4,3.43-1.11,5.14-1.67C130.87,29.17,113.94,12,97.72,7.59Zm.86,155.65c18.65-6.46,30-20.14,38.19-38.28l-23.28-5.17C110.41,135.52,107.12,150.24,98.57,163.24ZM69.48,8c-18.3,6.33-29.56,19.65-37.77,37.37l23,5.55C57.77,35.42,61,20.83,69.48,8ZM70.7,164.05c-9.78-13.69-12.91-28.45-16.08-43.85l-23,5.72C40.09,143.5,51.15,157.1,70.7,164.05Zm95.24-81.34a79.68,79.68,0,0,0-11.65-38.9l-9.94,4.9c2.11,11.57,4.15,22.74,6.2,34Zm-15.37,5.63c-2.11,11.68-4.13,22.84-6.19,34.2l10,4.75c7.19-12.25,11.19-25,11.49-38.95ZM16.87,43.78A78.66,78.66,0,0,0,5.27,82.66H17.42c2.27-11.91,4.45-23.39,6.7-35.19Zm7.24,79.88c-2.26-12-4.43-23.45-6.64-35.11H5.09c.89,14.14,4.44,27,11.88,38.82ZM151.4,39.34C143,28.1,133.58,19.54,122.23,14.17l20.52,29.49Zm-8.61,88.28-20.71,29.52c11.65-5.7,21.3-14.19,29.31-25.44ZM18.7,38.82l7.46,3.72L43,17.41l-.69-.79Zm7.42,89.66-7.34,4,23.61,22,.61-.78Z" transform="translate(0 0.01)"/></svg>