<svg id="Layer_1" data-name="Layer 1" xmlns="http://www.w3.org/2000/svg" viewBox="0 0 392.84 309.82"><defs><style>.cls-1{fill:#ff4d4f;}</style></defs><title>chat</title><path class="cls-1" d="M28.09,266.84c4.46-17,8.62-32.91,12.87-49.13-4.62-1.2-9-1.73-12.85-3.47-6.47-2.93-13.06-6-18.73-10.16C3.14,199.47.16,192.72.18,184.51.34,137.64.73,90.77,0,43.92-.25,27.38,7.43,16.79,20,8.48A51.71,51.71,0,0,1,49.29,0Q170.07.21,290.85.09c19.74,0,38,15.14,41.21,34.12a36.48,36.48,0,0,1,.35,6c0,46.53-.58,93.07.27,139.59.42,22.95-14.68,32.68-30.1,36.3a54.07,54.07,0,0,1-12.37,1.19c-57.68.07-115.37,0-173,.14a17.69,17.69,0,0,0-8.41,2.22c-24.53,14.17-48.92,28.55-73.34,42.93C33.37,263.81,31.25,265,28.09,266.84Zm77.49-163.79A21.74,21.74,0,0,0,84,81.14h-.27A22.4,22.4,0,0,0,61.62,103c-.1,12,10.22,22.26,22.36,22.12a21.67,21.67,0,0,0,21.6-21.76Zm60.55-21.91c-12.33.07-21.88,10-21.75,22.51a21.65,21.65,0,0,0,21.72,21.56h.5c11.91-.1,21.67-10.08,21.75-22.22C188.46,91.34,178,81.07,166.13,81.14Zm104.48,22a21.86,21.86,0,0,0-21.77-22h-.07a22,22,0,1,0,21.84,22.11Z" transform="translate(0.01 0.01)"/><path class="cls-1" d="M363.37,275c2.72,11.15,5.47,22.39,8.5,34.78-2.13-1-3.4-1.47-4.54-2.14-17.68-10.36-35.29-20.83-53.06-31a18.69,18.69,0,0,0-8.81-2.47c-51.84-.14-103.68-.08-155.51-.11-17.55,0-34.37-12.81-37.76-28.62-.1-.49-.29-1-.36-1.45-1.21-7.83-.54-8.62,7.32-8.62,66.51,0,133-.37,199.52.2,23.42.21,35.8-14.61,35.84-36q.08-55.28,0-110.56V83.1c22.06-4.29,38.38,4.67,38.32,26.49-.12,44.19,0,88.38-.06,132.57,0,12.83-4.13,23.73-16.49,29.6C372.62,273.5,368.31,273.83,363.37,275Z" transform="translate(0.01 0.01)"/></svg>