<svg id="Layer_1" data-name="Layer 1" xmlns="http://www.w3.org/2000/svg" viewBox="0 0 491.19 403.67"><defs><style>.cls-1{fill:#ff4d4f;}</style></defs><title>track</title><path class="cls-1" d="M70.11,442.84C46.71,365.73,23.4,288.91,0,211.78l69.19-43.65c2.63,4.06,5.06,7.8,7.77,12l-60.06,38c9.84,32.45,19.68,64.9,29.61,97.63l16.28,5.61c-1,3.05-2,5.84-3,9.12l-9.61-2.81,28.38,93.55c2.51-1.37,4.58-2.42,6.58-3.59q39.4-23.22,78.82-46.38a12.67,12.67,0,0,1,6.63-1.78c33.58,1.58,67.14,3.33,100.71,5h3.83L238.87,264.19l-6.53,8.25c-2.39-2.38-4.57-4.53-6.89-6.83l9.5-13.38c-7.45-22.66-14.86-45.18-22.35-68l-25.76-3.92,8.35-12.87,20.45,2.89,72.72-60.85,108.11,4.43,94.72,195.38c-5.92.5-11.3,1-16.69,1.39-35.27,2.5-70.55,4.92-105.81,7.54a11.06,11.06,0,0,0-6.15,2.77q-36.6,33.3-73,66.82a6.09,6.09,0,0,1-1,.8c-7.91,0-15,.29-22.1,0-30.7-1.5-61.39-3.22-92.09-4.72a12.21,12.21,0,0,0-6.31,1.53Q122,412.36,76,439.52ZM288.59,369.6c1.94-1.69,3.17-2.71,4.35-3.79q32.3-29.64,64.64-59.25a9.45,9.45,0,0,1,5.17-2.37q51-3.87,102-7.5c1.29-.1,2.56-.37,4.2-.61-.66-1.58-1-2.62-1.52-3.61-6.95-14.26-14.1-28.43-20.78-42.81a27.87,27.87,0,0,0-10.35-12.35c-4.87-3.15-9.44-6.77-14.3-10.28,1.73-3,3.22-5.49,4.78-8.15l5.24,3,.64-.66-45.78-94c-1-.14-1.62-.28-2.23-.3-29.48-.72-59-1.47-88.44-2a9.49,9.49,0,0,0-5.59,2.28q-25,20.64-49.79,41.51c-4.76,4-9.49,8-14.32,12.1l18.89,57.44,4.3-5.79,6.36,7.89c-2.41,3.31-4.66,6.42-6.87,9.48Z" transform="translate(0 -39.17)"/><path class="cls-1" d="M131.92,240.73c-3.19-5.31-6-10.25-9.08-15.09-16-25.62-31.75-51.45-48.27-76.75-26.45-40.5-7.88-85.45,26.28-102.42,27.32-13.56,60-7.94,81.71,14.35a68,68,0,0,1,10.79,80.76c-7.11,12.73-15.88,24.52-23.56,36.95-12,19.44-23.74,39.07-35.59,58.62C133.57,238.21,132.89,239.22,131.92,240.73Zm.73-98.91c21.81-.82,38.63-18,37.92-38.74a38.62,38.62,0,1,0-77.21,2.19c0,.1,0,.19,0,.28.82,20.38,18.87,37,39.28,36.28Z" transform="translate(0 -39.17)"/><path class="cls-1" d="M210.19,286.15l7,7c-3.91,4.74-7.74,9.4-11.82,14.36l-7.05-6.71Z" transform="translate(0 -39.17)"/><path class="cls-1" d="M170.31,337.52l-2.67-9.85,13-9.19,6.1,7.72Z" transform="translate(0 -39.17)"/><path class="cls-1" d="M143.44,334.47,146,344H125.93c.82-3.49,1.52-6.44,2.24-9.51Z" transform="translate(0 -39.17)"/><path class="cls-1" d="M103.34,330.84c-.91,3.41-1.66,6.24-2.53,9.55L84,337l3.16-9.43Z" transform="translate(0 -39.17)"/><path class="cls-1" d="M321.49,179.11c-.37,4.41-.62,7.36-.88,10.37l-15.42,4.62-5.54-8.5Z" transform="translate(0 -39.17)"/><path class="cls-1" d="M345.69,190.73c.28-3.21.54-6.15.87-10L366.4,186c-1.82,3.44-3.29,6.2-4.81,9Z" transform="translate(0 -39.17)"/><path class="cls-1" d="M384.83,205l4.5-8.72L405.64,205l-4.79,8.64Z" transform="translate(0 -39.17)"/><path class="cls-1" d="M272.33,220.43l-5.88-7.07,12.66-13.27c2.09,3.31,3.72,5.88,5.21,8.25Z" transform="translate(0 -39.17)"/></svg>