<svg id="Layer_1" data-name="Layer 1" xmlns="http://www.w3.org/2000/svg" viewBox="0 0 199.16 113.48"><defs><style>.cls-1{fill:#ff4d4f;}</style></defs><title>payment</title><path class="cls-1" d="M145,58c0,8.34.09,16.67,0,25-.12,8.73-3.93,12.48-12.51,12.5-7.16,0-14.34-.15-21.49.13a6.9,6.9,0,0,0-4.55,2.66c-2,2.66-3.27,5.78-5,8.65-4,6.84-9,8.26-15.91,4.5-7.59-4.16-15.39-8-22.61-12.71-5.53-3.61-11.32-3.21-17.25-3.22C34.75,95.5,33.09,94,31,83.23c-.27-1.44-1.9-3-3.29-3.77-7-4.09-14.25-7.93-21.35-11.93C0,64-1.71,58.4,1.83,51.92Q14.25,29.15,27,6.53c3.93-7,9.19-8.26,16.33-4.33C52.06,7,61,11.58,69.47,16.75a27.1,27.1,0,0,0,15.11,3.86c16-.22,32-.09,48-.08C141.2,20.53,145,24.28,145,33,145.06,41.33,145,49.7,145,58Zm-19.75-3.55c-1.83-1.8-3.48-4.31-5.81-5.61C93.65,34.37,67.74,20.09,41.85,5.77c-6-3.32-8.54-2.64-12,3.62Q17.68,31.15,5.68,53c-3.1,5.65-2.14,8.53,3.62,11.72l77.2,42.76c6.18,3.42,8.72,2.78,12.11-3.27q12.27-22,24.42-44a60.52,60.52,0,0,0,2.24-5.78ZM110.71,91.7H134.3c3.7,0,6.36-2.13,6.45-5.64.29-11.73.11-23.47.11-35.43H128.71C128.05,66.62,115.64,77.14,110.71,91.7Zm30.15-57.78c.06-7.6-1.72-9.5-8.3-9.52H85.48c5.1,3.94,10.27,8.64,15.83,9.16,13,1.14,26.13.34,39.55.34Zm1.26,12c-1.23-3-2.13-7.51-3.3-7.59-9.5-.58-19-.33-29.28-.33,9.33,8.54,19.65,9.8,32.58,7.88ZM48.86,91.08,35.37,83.75c.37,7.39,3,8.83,13.49,7.29Z" transform="translate(-0.02 0.02)"/><path class="cls-1" d="M18.57,57l1.8-3.42L93.92,94.13,92.21,97.6Z" transform="translate(-0.02 0.02)"/><path class="cls-1" d="M55.75,32.21A12,12,0,0,1,44,44.49H44A12.29,12.29,0,0,1,31.53,32.35v-.08a11.93,11.93,0,0,1,12-11.9h.18A11.74,11.74,0,0,1,55.75,31.76ZM43.06,40.63A8.38,8.38,0,0,0,51.92,33a8.06,8.06,0,0,0-7.33-8.73l-.26,0a8.19,8.19,0,0,0-8.95,7.35v.09c-.37,4.24,3.37,8.58,7.69,8.93Z" transform="translate(-0.02 0.02)"/><path class="cls-1" d="M43.06,40.63c-4.32-.35-8.06-4.69-7.65-8.9a8.2,8.2,0,0,1,8.85-7.48h.07a8.06,8.06,0,0,1,7.61,8.49c0,.09,0,.17,0,.26A8.38,8.38,0,0,1,43.06,40.63Z" transform="translate(-0.02 0.02)"/><path class="cls-1" d="M198.82,18.1c1.37,6.86-1.13,14.55-8.6,20.71s-16,7.63-25.07,5a9.4,9.4,0,0,0-4.22-.09c-4.16.83-8.26,2.28-12.42,2.74-9.46,1-17.72-5.08-19-13.54-1.3-8.83,4.72-17.4,14.06-20,1.14-.32,2.28-.64,3.43-.91a27,27,0,0,0,12.3-6C172.93-5.63,194.45.23,198.82,18.1ZM157.28,39.53c-6.91-6.74-8.63-14.41-5.81-23.36-2.34.61-4.33,1.09-6.3,1.64-6.78,1.89-11,7.73-10.12,14.12.77,5.78,6.54,10.06,13.24,9.48C151.13,41.16,154,40.25,157.28,39.53Zm29.85-20.24-.3-1.24c-.78-3.18-.76-3.13-4.09-1.7-2.82,1.2-5.38,3-8.81,2.72-1-.08-2.76,1.59-3.18,2.72a3.62,3.62,0,0,0,1.08,3.5c1,.69,3.24,1,4.14.42,2.33-1.54,4.74-1.42,7.17-1.6C188.22,23.7,188.22,23.78,187.13,19.29Z" transform="translate(-0.02 0.02)"/></svg>