<svg id="Layer_1" data-name="Layer 1" xmlns="http://www.w3.org/2000/svg" viewBox="0 0 57.77 60.14"><defs><style>.cls-1{fill:#e57456;}.cls-2{fill:#e47b5f;}.cls-3{fill:#e07a5e;}.cls-4{fill:#e47152;}.cls-5{fill:#f8f2f1;}.cls-6{fill:none;stroke:#e96743;stroke-miterlimit:10;stroke-width:5px;}</style></defs><title>Customer Service</title><path class="cls-1" d="M87.49,295.32c-2.51-3.23-7.07-6.41-7.13-9.68-.17-8.31-5.6-9.06-11.27-10.39-3.37.1-5.39-.73-4.31-4.86.31-1.18-1-2.77-1.49-4.17l-.07-.26V251.79l1-.19c.55.89,1.09,1.78,1.64,2.66,0,1.67.09,3.34.13,5,.77,3.94,1.55,7.89,2.21,11.29,2.51.77,4.41,1.24,6.23,1.95,3,1.2,5,1.42,7.23-2.22a27,27,0,0,1,10.12-9c6-3.11,6.43-3,3.44-9.26,0-.6-.09-1.2-.14-1.8.2-.86.41-1.72.86-3.62l4.72,9.52c1.28,1.4,2.33,3.65,3.88,4.06,10.84,2.92,17.63,17.31,12.62,26.77-.81,1.52-.87,3.44-1.28,5.18l-3.53-1.9c0-.34-.05-.68-.08-1l3.58-1.85L114,285.21l1-3.16,2.59,1.61.6-1.48-3.11-.93a49.59,49.59,0,0,0-1.19-6.82c-2.14-6.74-10.12-11.88-16.62-10.8-9.7,1.6-13.91,8.81-15,16.13-.77,5.41,5.91,15.49,13.82,15.56,0,4-3.23.9-4.49,2.1l-.27.07-.24-.14Z" transform="translate(-61.08 -238.22)"/><path class="cls-2" d="M65.88,254.26c-.55-.88-1.09-1.77-1.64-2.66l-1,.19V266a16.33,16.33,0,0,1,1.85-18.77c.4.53.81,1.05,1.22,1.57l.32-.32-1.56-1.22c4.38-7.43,12.28-10.52,21.2-8.29,8,2,14.1,9.27,14.43,17.22L96,246.63c-.45,1.9-.66,2.76-.86,3.62a55.73,55.73,0,0,0-4.23-4.19C82.29,239.16,70.42,242.22,65.88,254.26Z" transform="translate(-61.08 -238.22)"/><path class="cls-3" d="M91.61,297.42c1.26-1.2,4.53,1.88,4.49-2.1l11-2c1.06.65,2.13,1.28,3.18,1.95s1.88,1.22,2.82,1.84c-2.72.44-5.43,1.27-8.15,1.25C100.51,298.33,96.06,297.76,91.61,297.42Z" transform="translate(-61.08 -238.22)"/><path class="cls-4" d="M113.11,297.11c-.94-.62-1.87-1.25-2.82-1.84s-2.12-1.3-3.18-1.95c1.37-1.67,5.48,1.35,5.26-3.06l3.53,1.9C116,294.39,117.67,297.51,113.11,297.11Z" transform="translate(-61.08 -238.22)"/><path class="cls-2" d="M63.29,266.22c.54,1.4,1.8,3,1.49,4.17-1.08,4.13.94,5,4.31,4.86l-5.42.95c-.13-1.71-.31-3.41-.38-5.12S63.29,267.84,63.29,266.22Z" transform="translate(-61.08 -238.22)"/><path class="cls-3" d="M87.49,295.32l3.61,2Z" transform="translate(-61.08 -238.22)"/><path class="cls-4" d="M112.29,289.24c.56-1.34,1.13-2.68,1.69-4l1.89,2.18Z" transform="translate(-61.08 -238.22)"/><path class="cls-4" d="M115,282.05a.94.94,0,0,1,.09-.8l3.1.93-.6,1.48Z" transform="translate(-61.08 -238.22)"/><path class="cls-1" d="M65.05,247.22l1.56,1.22-.32.32c-.41-.52-.82-1-1.22-1.57Z" transform="translate(-61.08 -238.22)"/><path class="cls-4" d="M93.53,269.36c2.55-.46,5.21-1.63,7.62-1.24,3.93.62,5.2,4,3.1,7.55a31.69,31.69,0,0,1-5,5.92,2.46,2.46,0,0,1-2.43-.14,2.91,2.91,0,0,1-.47-2.61c.34-.79,1.58-1.13,2.17-1.88a33.89,33.89,0,0,0,2.24-3.6,41.42,41.42,0,0,0-4.17-1.94,11.68,11.68,0,0,0-2.92-.27Z" transform="translate(-61.08 -238.22)"/><path class="cls-3" d="M98.47,291.5c-1.22-2.11-2.36-3.23-2.34-4.33,0-.88,1.45-1.72,2.25-2.58.92.91,2.45,1.73,2.59,2.75S99.78,289.46,98.47,291.5Z" transform="translate(-61.08 -238.22)"/><path class="cls-5" d="M72,259.78l1-.15c-.07.25-.15.5-.22.75Z" transform="translate(-61.08 -238.22)"/><path class="cls-6" d="M72.89,256.1h1.53" transform="translate(-61.08 -238.22)"/><path class="cls-6" d="M78.63,255.59a9.38,9.38,0,0,0,2.05.13" transform="translate(-61.08 -238.22)"/><path class="cls-6" d="M85.78,255.59h3.58" transform="translate(-61.08 -238.22)"/><path class="cls-6" d="M80,255.74l1.27.13c.51,0,1.15,0,1.66,0" transform="translate(-61.08 -238.22)"/><path class="cls-6" d="M75.83,255.59a9.45,9.45,0,0,1-1.92-.14c-1-.17-1.72.65-2.77.65h1.24" transform="translate(-61.08 -238.22)"/><path class="cls-6" d="M92,274.72a6.22,6.22,0,0,1,5-6.66,10.07,10.07,0,0,1,3.33.17c1.45.27,3.06.82,3.59,2.19s-.4,3-1.39,4.22A13.91,13.91,0,0,1,97,279.1c.35.95.73,1.88,1.14,2.8" transform="translate(-61.08 -238.22)"/></svg>