<svg id="Layer_1" data-name="Layer 1" xmlns="http://www.w3.org/2000/svg" viewBox="0 0 64.73 50.49"><defs><style>.cls-1{fill:#e47152;}.cls-2{fill:#e07a5e;}.cls-3{fill:#e47b5f;}.cls-4{fill:#e96d4c;}.cls-5{fill:#df856b;}</style></defs><title>secure payments</title><path class="cls-1" d="M310.14,187.57c-1.59-3.7-5.05-7.93-4.21-10.95.79-2.84,6.08-4.51,9.5-6.51,4.43-2.59,9-5,13.48-7.48l.08.18c-.31,1.28-.63,2.57-.94,3.85l-17.9,11,.71,1.3,21.9-11.7,3.31,1.45c-6.84,4-13.6,8.11-20.56,11.88-2.74,1.5-3.14,3-1.56,5.46.8,1.23,1.56,2.49,2.51,4l16.28-8.77,3.35,1.36c-6.51,3.91-12.8,8.32-19.65,11.51-2.94,1.37-3.46,2.79-3.52,5.31.75.71,1.43,1.94,2.24,2,4.26.49,8.55.69,12.84,1l.45-.07.43.13,16.25,1.89,4.74.26,3.87,2.54-36-2.65-2.93-.22c-3.65-2-5.89-4.33-4.24-9.14C311.37,193,310.35,190.16,310.14,187.57Z" transform="translate(-305.8 -158.63)"/><path class="cls-2" d="M328.91,162.63c5.45-4.51,5.45-4.51,11.18,2.63,5.19-4.63,11.23-8.49,18.27-5.67a22.73,22.73,0,0,1,10,8.27c4.55,7,1.59,16.42-5.5,20.58l-3-1.94c1.3-1.32,2.59-2.65,3.89-4,.71-3.39,2.14-6.83,1.93-10.17-.27-4.24-4-6.71-7-5.75-2.87-2-4.15-6.79-9.29-5.69,3.13,4.6,2.81,6.11-1.34,7.68.39-1.26.79-2.52,1.19-3.81-6.17,1.54-8.31,6.86-6.42,15.81-4-4.31-1.54-8.91-.79-12.61l-7.72-6.65L329,162.81Z" transform="translate(-305.8 -158.63)"/><path class="cls-3" d="M317.77,204.63l36,2.65-3.87-2.54,5.95-2.29c0,.71.05,1.42.08,2.13l-.75,3.38,1.94.34,1.7-8.57c.35-3.07.71-6.13,1.06-9.2l1.23-.93c-.59,5.45-1,11-1.93,16.34-.24,1.29-2.57,3.29-3.76,3.17C342.83,207.83,330.3,206.18,317.77,204.63Z" transform="translate(-305.8 -158.63)"/><path class="cls-3" d="M310.14,187.57c.21,2.59,1.23,5.45.46,7.7-1.65,4.81.59,7.14,4.24,9.14-5,.88-6.5-1.39-5.78-6.08C309.6,194.77,309.79,191.16,310.14,187.57Z" transform="translate(-305.8 -158.63)"/><path class="cls-4" d="M361.08,189.6l-1.23.93c0-1.34,0-2.69,0-4h0l3,1.94Z" transform="translate(-305.8 -158.63)"/><path class="cls-4" d="M332.74,181.32c5.75-3.91,6.77-7.74,3.33-12.6l-3.31-1.44,2.5-3.34-7.21,2.72c.31-1.28.63-2.57.94-3.85l5.24-1.48L342,168c-.75,3.7-3.17,8.3.79,12.61l1.59,1.87,4.54,4.18,6.71,2.69L353,193.88a.8.8,0,0,1-.15.7l-3.25-3.79-5.11-2.68c-2.31-2.7-3.14-1.56-3.71,1.26a35.2,35.2,0,0,1-1.93,5.21V182.25l-2.78.43Z" transform="translate(-305.8 -158.63)"/><path class="cls-3" d="M328.88,202.59l16.25,1.89Z" transform="translate(-305.8 -158.63)"/><path class="cls-3" d="M312.92,199.5l15.08,3c-4.29-.3-8.58-.5-12.84-1C314.35,201.44,313.67,200.21,312.92,199.5Z" transform="translate(-305.8 -158.63)"/><path class="cls-1" d="M348,168.59c4.15-1.57,4.47-3.08,1.34-7.68,5.14-1.1,6.42,3.64,9.29,5.69l2.51,5a84.15,84.15,0,0,1-.21,8.85,4.19,4.19,0,0,1-2.25,3c-8.7,2.33-11.66,0-11.84-8.92,0-.65-.12-1.3-.19-2Zm1.43,12.57c3.69-.86,6.09-1.06,8-2.1.57-.3.39-4-.35-4.38-1.56-.81-4.27-1.22-5.49-.35S350.37,177.82,349.4,181.16Z" transform="translate(-305.8 -158.63)"/><path class="cls-2" d="M348.87,186.64l11-.14c0,1.34,0,2.69,0,4-.35,3.07-.71,6.13-1.06,9.2l-2.89,4.85c0-.71,0-1.42-.08-2.13.4-2,.91-4,1.15-6.06a32.65,32.65,0,0,0-.06-4.42L353,193.88l2.56-4.55Z" transform="translate(-305.8 -158.63)"/><path class="cls-1" d="M355.9,204.58l2.89-4.85c-.57,2.86-1.14,5.71-1.7,8.57l-1.94-.34Z" transform="translate(-305.8 -158.63)"/><path class="cls-5" d="M349.62,190.79l3.25,3.79c-1.14,3.77-3.79,5.94-7.62,5.82-3.45-.12-5.8-2.18-6.38-5.82a35.2,35.2,0,0,0,1.93-5.21c.57-2.82,1.4-4,3.71-1.26l-2.64,1c1,2.41,1.56,6.4,3.14,6.87C348.1,196.87,349.82,194.14,349.62,190.79Z" transform="translate(-305.8 -158.63)"/></svg>
