<svg id="Layer_1" data-name="Layer 1" xmlns="http://www.w3.org/2000/svg" viewBox="0 0 70.18 70.47"><defs><style>.cls-1,.cls-6{fill:#e96743;}.cls-2{fill:#e96b48;}.cls-3{fill:#e96d4c;}.cls-4{fill:#f5e8e2;}.cls-5{fill:#f4d1c6;}.cls-6{stroke:#e96743;stroke-miterlimit:10;}</style></defs><title>Shop</title><path class="cls-1" d="M205.16,265.38c-4.84,13-17.91,21.54-32.78,21.37-13.68-.15-28.22-10-32.12-22.21-2.47-7.75-3.62-15.71-.68-23.7l1.8,3.34c-.3,2.91-.3,6.07,3.44,6.27,3.18.18,7.53,1.74,8.59-3.63,1-.75,2.1-3.73,2.78.17.68,1,1.22,2.64,2.07,2.81a39.61,39.61,0,0,0,6.91.36l2,3.56.06.27-2,0h-2l-2.53.37-1.53-.19-4.77,3.27-2.07-4.41H141.79c-1,9.85,2,12.47,11.91,11,.49-1.52,1-3.05,1.46-4.57,4,6.44,9.9,6.06,16.12,4.29.85-3.46,2.82-7.06-1.25-9.9a2.26,2.26,0,0,1-.85-.17c.23-4.94,4.29-2,6.4-3.12a84,84,0,0,0,10.29-.14c1.58-.19,3-1.71,4.48-2.64l1.66-1c1.11,2.12,2,4.54,5.17,3.94v2.11c-6.29-.21-4.31,5.36-5.7,8.48-.27.6,1.43,3,2.07,2.94,3.5-.31,8.32,2.55,9.78-3.47ZM188.83,253l-13.71.88,0,10,12.36,1.06c.67-3,1.24-5.52,1.81-8.05l1.73-2.46Zm10.77,15.58c-11.9-4.32-12.63,6.31-17.08,11.93C190.28,279.45,195.45,274.78,199.6,268.53Zm-35.29,12.88c-2.35-3.58-4.06-6-5.56-8.51-3.43-5.78-4.45-6.21-11.9-4.14C151.19,274.74,156.08,279.36,164.31,281.41ZM159.4,268l10.25,12.84,1.21-.68V268Zm16.08,0v12.19l1.24.68,10-12.87Z" transform="translate(-137.84 -216.29)"/><path class="cls-2" d="M197.18,252.87v-2.11l6.49-1.74c1-9.66-1.42-11.56-12.38-9.52v3.85l.82,1.44-.1,2-1.66,1a34.24,34.24,0,0,0-1.65-5.58c-.63-1.3-1.86-3.06-3-3.2-3.37-.43-6.82-.15-10.7-.15.21,4.45.39,8.08.57,11.71-2.11,1.09-6.17-1.82-6.4,3.12h-2l-2-3.56,5.76-.8V239.28a10.57,10.57,0,0,0-1.73-.46c-10.07-.65-10.07-.65-13,8.17-.68-3.9-1.8-.92-2.78-.17l.8-7.43c-5.87-1.51-10.4-1-12.83,4.79l-1.8-3.34c5.17-14.27,15.06-23,30.34-24.37s27.09,5.08,34.26,18.43c5.18,9.65,4.73,20.19,1,30.48l-1.83-4.56.77-7.52ZM199,234.64c-3.84-7.49-10.56-12.12-16.29-11.45,1.57,2.28,3.65,4.37,4.6,6.88C189.67,236.18,194.14,235.33,199,234.64ZM162.88,223.2c-5.66-.37-13.48,5.55-15.16,11.47C156.62,235.69,157,235.38,162.88,223.2Zm14-.79-1.27.77v11.43h11.11Zm-5.93.84-1.35-.88-9.87,12.36H170.9ZM173,245.62l-.94.44,1,2.36.83-.36Z" transform="translate(-137.84 -216.29)"/><path class="cls-3" d="M171.28,263.78l-.24-3,0-1.93c-.26-.73-.51-1.46-.76-2.18-.09-.93-.19-1.85-.28-2.77C174.1,256.72,172.13,260.32,171.28,263.78Z" transform="translate(-137.84 -216.29)"/><path class="cls-3" d="M175.12,253.83c0,3.32,0,6.65,0,10C175.14,260.48,175.13,257.15,175.12,253.83Z" transform="translate(-137.84 -216.29)"/><path class="cls-2" d="M189.33,256.81c-.17-1.29-.33-2.58-.5-3.86l2.23,1.4Z" transform="translate(-137.84 -216.29)"/><path class="cls-4" d="M163.16,254l-2.53.38Z" transform="translate(-137.84 -216.29)"/><path class="cls-4" d="M167.21,254l-2,0Z" transform="translate(-137.84 -216.29)"/><path class="cls-1" d="M173,245.62l.86,2.44-.83.36-1-2.36Z" transform="translate(-137.84 -216.29)"/><path class="cls-1" d="M191.29,243.35l.82,1.44C191.84,244.31,191.57,243.83,191.29,243.35Z" transform="translate(-137.84 -216.29)"/><path class="cls-5" d="M170.31,256.65c.25.72.5,1.45.76,2.18C170.81,258.1,170.56,257.37,170.31,256.65Z" transform="translate(-137.84 -216.29)"/><path class="cls-6" d="M154.43,256.18c.37,2,1.17,3.75,1.61,5.72" transform="translate(-137.84 -216.29)"/></svg>