<svg id="Layer_1" data-name="Layer 1" xmlns="http://www.w3.org/2000/svg" viewBox="0 0 62.44 55.14"><defs><style>.cls-1{fill:#e57456;}.cls-2{fill:#e6785a;}.cls-3{fill:#e47b5f;}.cls-4{fill:#f7d9cc;}</style></defs><title>Payment Gateway</title><path class="cls-1" d="M275.36,320.71c1.67-4.49,3.46-8.94,5-13.49a71.26,71.26,0,0,0,3.11-11.4c1-6.42,1.1-6.72,7.5-5.47l2.45.46a63.67,63.67,0,0,0,6.4,1.83c6.21,1.11,12.45,2.05,19.9,3.26l-7.34,1.59c-1.77-.17-3.55-.25-5.31-.52-5.24-.79-10.46-1.83-15.73-2.38-1.18-.12-3.44,1.15-3.63,2.1-1.08,5.37-1.8,10.82-2.36,16.27-.1.93,1,2.75,1.75,2.89,7.08,1.33,14.21,2.39,21.32,3.52l20,2.64c.45.88,1.44,2.4,1.26,2.55a39.14,39.14,0,0,1-4.38,3c-2.57-2.82-3.55-2.61-4.9,1.08-2.54,7-6.87,8.88-13.3,5.9l-.69-.83-1-3c0-1-.33-2.15.07-2.94,2-4,.23-5.07-3.53-5.55-7.17-.93-14.29-2.21-21.75-3.39l-1.95,5.13,5.14,2.86c-1.09.5-2.4,1.64-3.25,1.37C276.64,327,274.36,324.83,275.36,320.71Zm37.8,1.72c-2,2.37-4.31,4-4.46,5.73s2,3.57,3.18,5.36l6.4-6.32Z" transform="translate(-273.29 -289.76)"/><path class="cls-2" d="M312.35,297.49l7.34-1.59c-7.45-1.21-13.69-2.15-19.9-3.26a63.67,63.67,0,0,1-6.4-1.83c13.13,1.93,26.29,3.77,39.38,5.95,1.23.2,3.08,2.65,3,3.89a198.15,198.15,0,0,1-3.27,22.66c-.59,2.7-3.36,4.92-5.14,7.36l-1.93.05-1.75,0c.54-1.05,1.09-2.1,1.63-3.16a37.76,37.76,0,0,0,4.38-3c.18-.15-.81-1.67-1.26-2.56l2.82-14.54,1.71.37-1.63-1.16V301h-6.91c4.24,6.13,4.15,12.21.07,16.09-3.33,3.17-6.22,3-11-.57-3.7-7.44-.75-12.87,5.69-17.22Zm13.28,11.59-5.51-4.92c-1.47,2.15-3.67,4.16-4.11,6.5-.26,1.32,2.36,3.2,3.69,4.83Zm8.07-9.15a6.91,6.91,0,0,0-9.69-1.87Zm-3.31,18,1.54.12v-6.24l-.39-.07Z" transform="translate(-273.29 -289.76)"/><path class="cls-3" d="M275.36,320.71c-1,4.12,1.28,6.32,4.73,7.44.85.27,2.16-.87,3.25-1.37l19.19,7.84,1.82,2c.64,1.24,1.29,2.48,1.94,3.72-10.1-4.15-20.26-8.16-30.27-12.51C272.15,326.14,272.84,323.35,275.36,320.71Z" transform="translate(-273.29 -289.76)"/><path class="cls-3" d="M325.39,330.72l1.93-.05c-1.67,4.49-3.18,9.07-5.17,13.42-.35.75-2.77.55-4.24.79l3.22-1.05-1.74-3.15,1.92-4.1c.22.56.43,1.12,1.15,3C323.68,335.86,324.53,333.29,325.39,330.72Z" transform="translate(-273.29 -289.76)"/><path class="cls-1" d="M319.39,340.68l1.74,3.15-3.22,1.05-.31,0-.25-.18-5-2h0l-5.52-2.18-.3,0-.23-.2c-.65-1.24-1.3-2.48-1.94-3.72l7,2.11,3.45,1.77,1.59.35,3-.12Z" transform="translate(-273.29 -289.76)"/><path class="cls-3" d="M312.33,342.69l5,2Z" transform="translate(-273.29 -289.76)"/><path class="cls-3" d="M306.82,340.51l5.52,2.18Z" transform="translate(-273.29 -289.76)"/><path class="cls-4" d="M306.38,333.68l-1-3Z" transform="translate(-273.29 -289.76)"/><path class="cls-1" d="M333.7,299.93,324,298.06A6.91,6.91,0,0,1,333.7,299.93Z" transform="translate(-273.29 -289.76)"/><path class="cls-1" d="M321.31,336.58c.77-2,1.55-3.93,2.33-5.9l1.75,0c-.86,2.57-1.71,5.14-2.93,8.82C321.74,337.7,321.53,337.14,321.31,336.58Z" transform="translate(-273.29 -289.76)"/><path class="cls-1" d="M330.39,317.91l1.15-6.19.39.07V318Z" transform="translate(-273.29 -289.76)"/><path class="cls-1" d="M331.21,307.46a1.14,1.14,0,0,1,.08-.79l1.63,1.16Z" transform="translate(-273.29 -289.76)"/><path class="cls-3" d="M311.35,338.72l3.45,1.77Z" transform="translate(-273.29 -289.76)"/><path class="cls-3" d="M316.39,340.84l3-.12Z" transform="translate(-273.29 -289.76)"/></svg>