<svg id="Layer_1" data-name="Layer 1" xmlns="http://www.w3.org/2000/svg" viewBox="0 0 61.66 72.03"><defs><style>.cls-1{fill:#e47b5f;}.cls-2{fill:#f7f0ea;}.cls-3{fill:#e6785a;}.cls-4{fill:none;stroke:#e96743;stroke-miterlimit:10;}</style></defs><title>Track</title><path class="cls-1" d="M126.74,172.22c3.55,21.46-8.4,35.06-23.61,47.21-4.48,3.58-8,3.68-12.5.07-8.87-7.19-16.95-14.92-21.66-25.58Q68,183,67.06,172.08l0,0,6.08-11.89c9.42-9.79,21.12-11.27,33.77-9.22l2.89,1.06A36.48,36.48,0,0,1,126.74,172.22Zm-56.15,9.14c.07.86.18,2.69.39,4.51a11.88,11.88,0,0,0,.6,2.4c4,12.47,12.77,21.2,23.12,28.53a4.74,4.74,0,0,0,4.39.1c9.79-7.14,18.56-15.3,22.51-27.21,3.59-10.84,1.85-20.78-6.69-28.85-8.21-7.75-17.85-9.3-28.21-5.2C76.59,159.65,70.53,169.3,70.59,181.36Z" transform="translate(-65.71 -150.14)"/><path class="cls-2" d="M70.59,181.36c-.06-12.06,6-21.71,16.11-25.72,10.36-4.1,20-2.55,28.21,5.2,8.54,8.07,10.28,18,6.69,28.85-3.95,11.91-12.72,20.07-22.51,27.21a4.74,4.74,0,0,1-4.39-.1c-10.35-7.33-19.08-16.06-23.12-28.53a11.88,11.88,0,0,1-.6-2.4C70.77,184.05,70.66,182.22,70.59,181.36Zm6.6-.79c-2.74,8.36,1.71,12.1,8.48,16.26,8.18,5,14.29,4.79,22.5-.07,6.84-4,9-8.14,9.15-15.86.11-7.92-2.77-11.53-9.29-15.66-8.51-5.38-14.83-4.72-22.89.38C79.1,169.45,74.4,172.64,77.19,180.57Z" transform="translate(-65.71 -150.14)"/><path class="cls-3" d="M77.19,180.57c-2.79-7.93,1.91-11.12,8-14.95,8.06-5.1,14.38-5.76,22.89-.38,6.52,4.13,9.4,7.74,9.29,15.66-.11,7.72-2.31,11.81-9.15,15.86-8.21,4.86-14.32,5.1-22.5.07C78.9,192.67,74.45,188.93,77.19,180.57Zm35.18-4.5c-14.19,6.69-15.26,8.36-12.87,19.68C111.61,192.74,114.89,187.85,112.37,176.07Zm-31,.39c-2.66,11.41,2.13,18.34,13.2,19.07C95.84,183.1,94.1,180.59,81.37,176.46Zm10.91-10.2c10.87,8.64,14.37,9.6,17.74,4.67C104.15,169.77,100.51,162,92.28,166.26Zm9.16,11.09C89.13,169,86,167,83.82,173,89.6,173.89,93.24,181.94,101.44,177.35Z" transform="translate(-65.71 -150.14)"/><path class="cls-4" d="M71.24,196.67a51.45,51.45,0,0,1-4.31-11.16A23.36,23.36,0,0,1,67,173.65" transform="translate(-65.71 -150.14)"/><path class="cls-4" d="M70.94,192.35a13.31,13.31,0,0,1-3.25-6.13,28.08,28.08,0,0,1-.65-7,6.5,6.5,0,0,1,.9-3.82" transform="translate(-65.71 -150.14)"/><path class="cls-4" d="M67.64,172.57c-1.34,1.93,3.15,9.67-.38,9.33" transform="translate(-65.71 -150.14)"/><path class="cls-4" d="M67.75,184.8l1.77,5.25" transform="translate(-65.71 -150.14)"/><path class="cls-4" d="M67.43,176.45v6.47" transform="translate(-65.71 -150.14)"/><path class="cls-4" d="M68.5,185.7A109.2,109.2,0,0,1,73,196.2" transform="translate(-65.71 -150.14)"/><path class="cls-4" d="M67.94,183.77a32.63,32.63,0,0,0-.21-4.42" transform="translate(-65.71 -150.14)"/><path class="cls-4" d="M73.4,199.59l2.52,3.26" transform="translate(-65.71 -150.14)"/><path class="cls-4" d="M68.1,185.47a13.42,13.42,0,0,0-.15-3.23" transform="translate(-65.71 -150.14)"/><path class="cls-4" d="M77.69,174.66c-1.3,3.5-2.33,7.44-.93,10.9" transform="translate(-65.71 -150.14)"/><path class="cls-4" d="M81.21,173.21l1.55-2.37" transform="translate(-65.71 -150.14)"/><path class="cls-4" d="M77.67,180.05a6.25,6.25,0,0,0-1.25,3" transform="translate(-65.71 -150.14)"/></svg>