<svg id="Layer_1" data-name="Layer 1" xmlns="http://www.w3.org/2000/svg" viewBox="0 0 635.69 598.75"><defs><style>.cls-1{fill:#4b2b12;}.cls-2{fill:#ca0212;}.cls-3{fill:#f1f1f1;}.cls-4{fill:#97a42e;}.cls-5{fill:#436002;}.cls-6{fill:#fb921f;}.cls-7{fill:#eeb508;}.cls-8{fill:#eaefba;}.cls-9{fill:#efedec;}.cls-10{fill:#fa921f;}.cls-11{fill:#ebf0bb;}.cls-12{fill:#87a135;}.cls-13{fill:#fbfaf8;}.cls-14{fill:#465d05;}.cls-15{fill:#969e32;}.cls-16{fill:#10020e;}.cls-17{fill:#0f010d;}.cls-18{fill:#0c010d;}.cls-19{fill:#130802;}</style></defs><title>7c71d0d51ef5a492c02043429bce5294</title><path class="cls-1" d="M279.3,1183.18c-5.74-1.48-10.94-2.16-15.58-4.15-10.14-4.33-17.21-12.17-18.57-23.09a114.34,114.34,0,0,1,0-29.8c2.15-15.26,15.93-26,31.39-26.27,4.15-.07,8.3,0,12.71,0,1-42.27,21.86-69.43,61.83-82.19-24.55-11.84-37.76-34.15-36.68-62.3,13.47-1.43,26.73-.68,39.59,4.13,20.71,7.74,29.68,24.52,34,44.73,1,4.55,0,10.29,2.43,13.52s8.17,3.68,12.35,5.6a82.55,82.55,0,0,1,28,21.27,8.33,8.33,0,0,0,5.7,2.28c5.81,0,11.62-.71,17.43-.68,2.7,0,4.05-.59,5.3-3.13,6.82-13.81,15.73-25.86,29.47-33.69a4.87,4.87,0,0,0,2.13-3.46c1.39-38.08,13.64-73.79,23.74-110,.49-1.76,1-3.51,1.48-5.28a2.8,2.8,0,0,0-.1-1c-12.44-4.06-16-9-16-22.33,0-2.17,0-4.34,0-6.5.24-10.57,7.27-17.88,17.83-18.3,5.32-.22,10.66-.06,16-.06H614.2c13.59,0,20.59,7,20.61,20.64,0,1.67,0,3.34,0,5,0,12.33-4.22,18-16.19,21.46,6.83,25,13.66,50,20.75,75.94,1.35-5.77,2.47-10.57,3.76-16.07,7.56,1.64,15.17,2.62,22.3,5s11.56.76,16.29-5.3c11.57-14.83,23.95-29,36.15-43.38,6.6-7.75,16.41-10.11,25.32-6.5a21.56,21.56,0,0,1,13.63,21.27c-.27,3.73-1.68,7.38-2.7,11.65l23.71,5.47c12.8,3,18.33,11.69,15.5,24.38-1.45,6.48-2.86,13-4.42,20L859.1,998c-7.6,33.87-15.15,67.54-22.85,101.91H845c19.14,0,32.79,12.15,34.41,31a117.85,117.85,0,0,1,0,20c-1.59,18.75-13.68,29.64-34.87,31.47-1.48,9.16-3,18.46-4.5,27.77q-12.28,76.67-24.52,153.34c-1.86,11.69-3.66,23.37-9.39,34-14.79,27.33-37.78,42.43-68.75,43.29-33.31.91-66.66.27-100,.28q-123,0-246,0c-33.26,0-58.17-14.46-74.09-43.83-6.82-12.58-8-26.66-10.26-40.43q-11.4-70.74-22.71-141.49C282.62,1204.25,280.9,1193.27,279.3,1183.18Zm14.43.93c.91,7.28,1.52,14,2.62,20.53,1.67,10,3.89,19.86,5.49,29.84,1.67,10.38,2.84,20.84,4.32,31.25.66,4.69,1.47,9.36,2.31,14,1.78,10,3.75,19.88,5.38,29.87,1,6.31,1.49,12.71,2.36,19,.61,4.41,1.48,8.78,2.24,13.16,1.18,6.8,2.23,13.63,3.59,20.4,1.53,7.67,2.83,15.44,5.15,22.88,3.91,12.6,12.78,22.08,23,29.45a66.91,66.91,0,0,0,24.8,11c10.77,2.24,22.13,2.17,33.24,2.19q153.74.21,307.47,0a194.36,194.36,0,0,0,19.91-.84c7.26-.77,14.82-1.2,21.58-3.65a65.54,65.54,0,0,0,29.29-20.91,72.47,72.47,0,0,0,13.21-27.05c1.54-5.81,1.58-12,2.39-18,.64-4.69,1.35-9.38,2.17-14,1.85-10.45,3.91-20.86,5.63-31.33,1-6.15,1.47-12.38,2.32-18.56.61-4.4,1.44-8.78,2.22-13.16,1.81-10.12,3.78-20.21,5.43-30.36,1-6.14,1.31-12.4,2.36-18.54,2.39-14,5.09-27.93,7.57-41.9a31.15,31.15,0,0,0,0-5.3Zm247.44-70.28c-.18,0-1.62-.13-3.07-.13H307.18c-10,0-20-.15-30,0-11.13.22-19.05,8.37-19.19,19.47-.07,5.49-.13,11,0,16.49.27,9.11,7.38,17.12,16.2,18.23a72.64,72.64,0,0,0,9,.28h548.3c4.84,0,9.67.08,14.5,0,11.49-.32,19.33-8,19.78-19.52.18-4.66.09-9.33,0-14-.16-13-8-20.91-20.92-20.92q-120,0-239.91.12a10,10,0,0,0-6.63,3.05c-7.2,8.07-13.9,16.6-21,24.74-5.75,6.57-13.21,8.87-21.69,6.8-8.7-2.12-14.76-7.78-16-16.56C538.85,1126.13,540.56,1120,541.17,1113.83Zm188-42.44-42.33-59.81c-1.75,1.93-3.11,3.32-4.36,4.82-19.54,23.35-39,46.79-58.68,70a20.4,20.4,0,0,0-5.32,13.17c1.18.12,2.3.34,3.42.34q100.68,0,201.37.08c3.38,0,4.54-1.22,5.22-4.37,3.37-15.58,7-31.11,10.51-46.67,3.32-14.7,6.58-29.42,10.11-45.21ZM499.48,1004h16.27c7.24,0,7.24,0,7.25-7.2,0-6.79,0-6.8,7-6.8H634.52c-5.24-34.59-15.6-67-25.19-100H567.18q-19,0-38,0c-2.63,0-4.68,0-5.3,3.64A164.35,164.35,0,0,1,519.64,911c-2.43,8.49-5.34,16.85-7.63,25.37s-3.56,17.67-6.35,26.17c-3.79,11.52-4.86,23.32-5.67,35.23C499.86,999.6,499.69,1001.4,499.48,1004Zm-75.88,45.88c-18.73-24-54.87-32-83.67-19-32.4,14.66-44.44,48.75-41.23,69H304c21.49,0,43-.11,64.47.11,3.75,0,5.54-1,7-4.47a78.23,78.23,0,0,1,37.34-40.65C416.27,1053.06,419.93,1051.56,423.6,1049.88Zm208.16-51.14a9,9,0,0,0-1.78-.43c-31.63,0-63.27,0-94.9.09a4.74,4.74,0,0,0-3.56,2.74c-.54,2.44-1,5.28,2.71,6.42,4.44,1.36,8.74,3.18,13.08,4.83,2.74,1,3.57,2.78,1.87,5.4q-7.6,11.65-15.17,23.34c-1,1.48-2.48,3.06-2.49,4.6-.13,17.64,0,35.28.06,52.91,0,.28.35.55.81,1.25,5.85,0,12-.2,18.12.09,3.41.16,5.53-1.18,7.6-3.66,21.74-26,43.4-52.18,65.5-77.93C628.58,1012.6,630.76,1006.31,631.76,998.74Zm204.13,2.78c-1.84-.45-2.57-.65-3.3-.81q-56.21-12.66-112.44-25.19a5.64,5.64,0,0,0-4.53,1.62q-10.83,12.43-21.2,25.25c-.82,1-1.06,3.55-.36,4.55,12.32,17.77,24.83,35.42,37.55,53.45ZM560.76,1136.7c3.17-2.5,6.06-4.1,8-6.47q83.27-99,166.35-198.16a91.24,91.24,0,0,0,6.57-8.16c2.45-3.73,1.71-7.48-1.62-10.29s-7.07-2.75-10.48,0a29.17,29.17,0,0,0-3.66,4.08Q650.35,1007.83,574.76,1098c-6.64,7.9-13.5,15.64-19.7,23.87-1.58,2.1-2,6.11-1.2,8.64C554.62,1132.74,557.85,1134.21,560.76,1136.7Zm-45.82-37c-9.25-26.86-37.08-46.49-68.17-45.2-29.38,1.23-60.89,24.61-63.08,45.2ZM567.42,881h41.45c16.24,0,17.56-1.34,17.49-17.66-.05-9.3-3.23-12.44-12.71-12.45H526.24c-16.86,0-18.18,1.33-18.06,18.18.06,8.36,3.55,11.93,11.79,11.94Zm-99.16,163.42c33.23,14,57.81,2.68,70.29-26.07C509.51,1005.59,484.67,1012.13,468.26,1044.43Zm-87.75-31.76c-2.24-19.59-9.44-33.63-21.52-41.24-10.86-6.85-23-8.15-35.62-8.39C327.6,1000.24,348.88,1014.42,380.51,1012.67Zm343.12-45.25,57,12.81c1.66-7.41,3.28-14.35,4.77-21.33,1.34-6.3-1.73-11.21-8.07-12.73-8.9-2.14-17.82-4.16-26.79-6-1.51-.3-3.92.05-4.81,1.07C738.43,949.62,731.35,958.21,723.63,967.42Zm-201,84.45a19.42,19.42,0,0,0-2.71.71c-6.12,3-12.24,5.85-19.33,5.56-.82,0-2.41,1.14-2.39,1.7.06,1.48.37,3.46,1.37,4.31,9.5,8.11,16.66,18.08,23.06,28.86Zm118.72-56.51,1,.26c5.26-6.17,10.59-12.29,15.72-18.57.88-1.09,1.72-3.37,1.18-4.25-2.69-4.45-5.84-8.61-9.62-14C646.67,972,644,983.66,641.36,995.36Z" transform="translate(-244.16 -842.45)"/><path class="cls-2" d="M293.73,1184.11H829.86a31.15,31.15,0,0,1,0,5.3c-2.48,14-5.18,27.91-7.57,41.9-1,6.14-1.35,12.4-2.36,18.54-1.65,10.15-3.62,20.24-5.43,30.36-.78,4.38-1.61,8.76-2.22,13.16-.85,6.18-1.31,12.41-2.32,18.56-1.72,10.47-3.78,20.88-5.63,31.33-.82,4.66-1.53,9.35-2.17,14-.81,6-.85,12.22-2.39,18a72.47,72.47,0,0,1-13.21,27.05,65.54,65.54,0,0,1-29.29,20.91c-6.76,2.45-14.32,2.88-21.58,3.65a194.36,194.36,0,0,1-19.91.84q-153.74.06-307.47,0c-11.11,0-22.47,0-33.24-2.19a66.91,66.91,0,0,1-24.8-11c-10.26-7.37-19.13-16.85-23-29.45-2.32-7.44-3.62-15.21-5.15-22.88-1.36-6.77-2.41-13.6-3.59-20.4-.76-4.38-1.63-8.75-2.24-13.16-.87-6.33-1.33-12.73-2.36-19-1.63-10-3.6-19.91-5.38-29.87-.84-4.66-1.65-9.33-2.31-14-1.48-10.41-2.65-20.87-4.32-31.25-1.6-10-3.82-19.86-5.49-29.84C295.25,1198.06,294.64,1191.39,293.73,1184.11Zm200.1,120.68c0-17,.13-34-.08-51a63.3,63.3,0,0,0-1.79-14.65c-2.69-10.69-9.5-18.41-20.16-21a86.9,86.9,0,0,0-24.62-2c-18.37,1-30.24,13.85-30.63,30.28-.93,38.63-.62,77.31-.21,116,.18,17.67,14.65,32.36,32,31.64,5.49-.22,11,.3,16.48-.18a29.74,29.74,0,0,0,10.89-2.91c12.07-6.33,17.93-16.77,18.05-30.26C494,1342.11,493.84,1323.45,493.83,1304.79Zm136.26.52h0c0,19.66-.15,39.33,0,59,.12,12.21,9.77,24.87,20.51,27.55,7.58,1.89,15.7,1.76,23.59,2.24C692,1395.17,707,1381,707,1362c.06-37.83.13-75.65-.06-113.48-.07-13.78-6.58-23.89-19.16-29.84-7.54-3.57-15.63-2.31-23.56-2.63-19-.78-34.73,14.25-34.27,34.28C630.42,1268.64,630.09,1287,630.09,1305.31Zm-106.27,0h.06c0,20-.12,40,0,60,.1,11.91,8.61,22.65,18.79,26.24,12.25,4.32,25.12,4.14,37.57.3,10.28-3.16,19.62-15.7,19.65-26.27q.23-60.73,0-121.49c0-11-10.9-24.05-21.77-26.05a139.8,139.8,0,0,0-22.68-1.93c-17-.31-32.38,15.07-31.8,31.72C524.33,1267,523.82,1286.19,523.82,1305.36Z" transform="translate(-244.16 -842.45)"/><path class="cls-3" d="M541.17,1113.83c-.61,6.19-2.32,12.3-1.5,18,1.24,8.78,7.3,14.44,16,16.56,8.48,2.07,15.94-.23,21.69-6.8,7.13-8.14,13.83-16.67,21-24.74a10,10,0,0,1,6.63-3.05q120-.24,239.91-.12c12.91,0,20.76,7.94,20.92,20.92,0,4.67.14,9.34,0,14-.45,11.48-8.29,19.2-19.78,19.52-4.83.13-9.66,0-14.5,0H283.23a72.64,72.64,0,0,1-9-.28c-8.82-1.11-15.93-9.12-16.2-18.23-.17-5.49-.11-11,0-16.49.14-11.1,8.06-19.25,19.19-19.47,10-.19,20,0,30,0H538.1C539.55,1113.7,541,1113.82,541.17,1113.83Z" transform="translate(-244.16 -842.45)"/><path class="cls-4" d="M729.15,1071.39l119.94-67.66c-3.53,15.79-6.79,30.51-10.11,45.21-3.5,15.56-7.14,31.09-10.51,46.67-.68,3.15-1.84,4.37-5.22,4.37q-100.68-.13-201.37-.08c-1.12,0-2.24-.22-3.42-.34a20.4,20.4,0,0,1,5.32-13.17c19.72-23.2,39.14-46.64,58.68-70,1.25-1.5,2.61-2.89,4.36-4.82Z" transform="translate(-244.16 -842.45)"/><path class="cls-5" d="M499.48,1004c.21-2.6.38-4.4.51-6.21.81-11.91,1.88-23.71,5.67-35.23,2.79-8.5,4-17.5,6.35-26.17s5.2-16.88,7.63-25.37a164.35,164.35,0,0,0,4.25-17.42c.62-3.6,2.67-3.64,5.3-3.64q19,0,38,0h42.15c9.59,33,19.95,65.43,25.19,100H530c-7,0-7,0-7,6.8,0,7.23,0,7.22-7.25,7.2Z" transform="translate(-244.16 -842.45)"/><path class="cls-6" d="M423.6,1049.88c-3.67,1.68-7.33,3.18-10.83,5a78.23,78.23,0,0,0-37.34,40.65c-1.44,3.47-3.23,4.51-7,4.47-21.49-.22-43-.11-64.47-.11H298.7c-3.21-20.22,8.83-54.31,41.23-69C368.73,1017.88,404.87,1025.87,423.6,1049.88Z" transform="translate(-244.16 -842.45)"/><path class="cls-7" d="M631.76,998.74c-1,7.57-3.18,13.86-8.15,19.65-22.1,25.75-43.76,51.88-65.5,77.93-2.07,2.48-4.19,3.82-7.6,3.66-6.13-.29-12.27-.09-18.12-.09-.46-.7-.81-1-.81-1.25-.07-17.63-.19-35.27-.06-52.91,0-1.54,1.54-3.12,2.49-4.6q7.54-11.7,15.17-23.34c1.7-2.62.87-4.36-1.87-5.4-4.34-1.65-8.64-3.47-13.08-4.83-3.73-1.14-3.25-4-2.71-6.42a4.74,4.74,0,0,1,3.56-2.74c31.63-.14,63.27-.11,94.9-.09A9,9,0,0,1,631.76,998.74Z" transform="translate(-244.16 -842.45)"/><path class="cls-8" d="M835.89,1001.52l-104.28,58.87c-12.72-18-25.23-35.68-37.55-53.45-.7-1-.46-3.54.36-4.55q10.37-12.82,21.2-25.25a5.64,5.64,0,0,1,4.53-1.62Q776.4,988,832.59,1000.71C833.32,1000.87,834.05,1001.07,835.89,1001.52Z" transform="translate(-244.16 -842.45)"/><path class="cls-9" d="M560.76,1136.7c-2.91-2.49-6.14-4-6.9-6.24-.84-2.53-.38-6.54,1.2-8.64,6.2-8.23,13.06-16,19.7-23.87q75.6-90.12,151.21-180.21a29.17,29.17,0,0,1,3.66-4.08c3.41-2.79,7.16-2.85,10.48,0s4.07,6.56,1.62,10.29a91.24,91.24,0,0,1-6.57,8.16Q652,1031.19,568.81,1130.23C566.82,1132.6,563.93,1134.2,560.76,1136.7Z" transform="translate(-244.16 -842.45)"/><path class="cls-10" d="M514.94,1099.68H383.69c2.19-20.59,33.7-44,63.08-45.2C477.86,1053.19,505.69,1072.82,514.94,1099.68Z" transform="translate(-244.16 -842.45)"/><path class="cls-11" d="M567.42,881H520c-8.24,0-11.73-3.58-11.79-11.94-.12-16.85,1.2-18.18,18.06-18.18h87.41c9.48,0,12.66,3.15,12.71,12.45.07,16.32-1.25,17.65-17.49,17.66Z" transform="translate(-244.16 -842.45)"/><path class="cls-12" d="M468.26,1044.43c16.41-32.3,41.25-38.84,70.29-26.07C526.07,1047.11,501.49,1058.41,468.26,1044.43Z" transform="translate(-244.16 -842.45)"/><path class="cls-12" d="M380.51,1012.67c-31.63,1.75-52.91-12.43-57.14-49.63,12.6.24,24.76,1.54,35.62,8.39C371.07,979,378.27,993.08,380.51,1012.67Z" transform="translate(-244.16 -842.45)"/><path class="cls-13" d="M723.63,967.42c7.72-9.21,14.8-17.8,22.13-26.17.89-1,3.3-1.37,4.81-1.07,9,1.83,17.89,3.85,26.79,6,6.34,1.52,9.41,6.43,8.07,12.73-1.49,7-3.11,13.92-4.77,21.33Z" transform="translate(-244.16 -842.45)"/><path class="cls-14" d="M522.64,1051.87V1093c-6.4-10.78-13.56-20.75-23.06-28.86-1-.85-1.31-2.83-1.37-4.31,0-.56,1.57-1.74,2.39-1.7,7.09.29,13.21-2.57,19.33-5.56A19.42,19.42,0,0,1,522.64,1051.87Z" transform="translate(-244.16 -842.45)"/><path class="cls-15" d="M641.36,995.36c2.66-11.7,5.31-23.39,8.31-36.58,3.78,5.41,6.93,9.57,9.62,14,.54.88-.3,3.16-1.18,4.25-5.13,6.28-10.46,12.4-15.72,18.57Z" transform="translate(-244.16 -842.45)"/><path class="cls-16" d="M493.84,1304.79c0,18.66.13,37.32,0,56-.12,13.49-6,23.93-18.05,30.26a29.74,29.74,0,0,1-10.89,2.91c-5.45.48-11,0-16.48.18-17.38.72-31.85-14-32-31.64-.41-38.65-.72-77.33.21-116,.39-16.43,12.26-29.27,30.63-30.28a86.9,86.9,0,0,1,24.62,2c10.66,2.54,17.47,10.26,20.16,21a63.3,63.3,0,0,1,1.79,14.65C494,1270.8,493.83,1287.79,493.84,1304.79ZM480,1306.57c0-18.83-.15-37.66.06-56.49.11-10.22-9.35-19.42-16.35-20a172.89,172.89,0,0,0-17.49-.07c-4.43.09-13.59,6.8-14.09,10.53-.9,6.62-2,13.29-2,19.94q-.32,50,0,100a24.59,24.59,0,0,0,2.86,11.22c2.82,5.2,8.19,7.52,13.86,8.18,4.6.54,9.36-.31,14,.2,9.71,1.06,19.52-9.56,19.29-19C479.7,1342.91,480,1324.74,480,1306.57Z" transform="translate(-244.16 -842.45)"/><path class="cls-17" d="M630.09,1305.31c0-18.33.33-36.67-.1-55-.46-20,15.23-35.06,34.27-34.28,7.93.32,16-.94,23.56,2.63,12.58,5.95,19.09,16.06,19.16,29.84.19,37.83.12,75.65.06,113.48,0,19-15.08,33.18-32.77,32.1-7.89-.48-16-.35-23.59-2.24-10.74-2.68-20.39-15.34-20.51-27.55-.2-19.66,0-39.33,0-59Zm13.91.42v58.93c0,3.6,5.69,12.27,9,13.13,9.71,2.52,19.62,4.67,29.18,0,3.86-1.86,9.14-3.32,9.7-8.72a208,208,0,0,0,1.06-21.33c.11-33.62.06-67.25,0-100.87,0-6.48-7.25-16.36-13.59-16.62-7.94-.32-16.08-1.84-23.92,1.69-7.17,3.22-11.48,9-11.48,16.83Z" transform="translate(-244.16 -842.45)"/><path class="cls-18" d="M523.82,1305.36c0-19.17.51-38.35-.16-57.49-.58-16.65,14.78-32,31.8-31.72a139.8,139.8,0,0,1,22.68,1.93c10.87,2,21.72,15.05,21.77,26.05q.29,60.75,0,121.49c0,10.57-9.37,23.11-19.65,26.27-12.45,3.84-25.32,4-37.57-.3-10.18-3.59-18.69-14.33-18.79-26.24-.16-20,0-40,0-60Zm62.18-.17q0-29.24,0-58.48c0-6.29-4.56-13.38-10.5-14.6a115.59,115.59,0,0,0-20.1-2c-9.21-.25-17.38,8.18-17.39,17.34q0,50.47,0,101c0,2.3-.64,4.62-.53,6.91.22,4.75-.36,10,1.4,14.13,2.88,6.79,8.65,10.79,16.6,10.59,4.5-.11,9,0,13.5,0,9.89,0,17-7.26,17.06-17.33Q586,1333.93,586,1305.19Z" transform="translate(-244.16 -842.45)"/><path class="cls-19" d="M480,1306.57c0,18.17-.3,36.34.12,54.49.23,9.47-9.58,20.09-19.29,19-4.62-.51-9.38.34-14-.2-5.67-.66-11-3-13.86-8.18a24.59,24.59,0,0,1-2.86-11.22q-.33-50,0-100c0-6.65,1.13-13.32,2-19.94.5-3.73,9.66-10.44,14.09-10.53a172.89,172.89,0,0,1,17.49.07c7,.56,16.46,9.76,16.35,20C479.85,1268.91,480,1287.74,480,1306.57Z" transform="translate(-244.16 -842.45)"/><path class="cls-19" d="M644,1305.73v-56.92c0-7.78,4.31-13.61,11.48-16.83,7.84-3.53,16-2,23.92-1.69,6.34.26,13.59,10.14,13.59,16.62,0,33.62.07,67.25,0,100.87a208,208,0,0,1-1.06,21.33c-.56,5.4-5.84,6.86-9.7,8.72-9.56,4.63-19.47,2.48-29.18,0-3.32-.86-9-9.53-9-13.13Z" transform="translate(-244.16 -842.45)"/><path class="cls-19" d="M586,1305.19q0,28.74,0,57.48c0,10.07-7.17,17.33-17.06,17.33-4.5,0-9-.09-13.5,0-8,.2-13.72-3.8-16.6-10.59-1.76-4.17-1.18-9.38-1.4-14.13-.11-2.29.53-4.61.53-6.91q.06-50.48,0-101c0-9.16,8.18-17.59,17.39-17.34a115.59,115.59,0,0,1,20.1,2c5.94,1.22,10.49,8.31,10.5,14.6Q586,1276,586,1305.19Z" transform="translate(-244.16 -842.45)"/></svg>