<svg id="Layer_1" data-name="Layer 1" xmlns="http://www.w3.org/2000/svg" viewBox="0 0 91.3 151.7"><defs><style>.cls-1{fill:#2f2454;}.cls-2{fill:#f38c6c;}.cls-3{fill:#714128;}.cls-4{fill:#1f193a;}.cls-5{fill:#e88065;}.cls-6{fill:#261f48;}.cls-7{fill:#853c20;}.cls-8{fill:#d54630;}.cls-9{fill:#a2434a;}.cls-10{fill:#f68969;}.cls-11{fill:#f0937e;}.cls-12{fill:#823647;}.cls-13{fill:#f3e4cc;}.cls-14{fill:#923d41;}.cls-15{fill:#b4b3b3;}.cls-16{fill:#f1ece7;}.cls-17{fill:#dcc7af;}.cls-18{fill:#0e8b44;}.cls-19{fill:#e67d34;}.cls-20{fill:#959c46;}.cls-21{fill:#e3c8a7;}.cls-22{fill:#aaaa52;}.cls-23{fill:#cb2030;}.cls-24{fill:#f19b4c;}.cls-25{fill:#f79a37;}.cls-26{fill:#dabe62;}</style></defs><title>shoppping-bag</title><path class="cls-1" d="M779.56,1290.73l4-.17c1.32-1.36,3.66-2.64,3.78-4.1.44-5.77.19-11.6.2-17.41l-5.18-.42c.69-4.69,1.35-9.11,2-13.53h-3.76l-12-.1-3,1a38.27,38.27,0,0,1,1,5.34,76.43,76.43,0,0,1-.12,8.15c-.25,4.85.42,10.1-1.28,14.41-1.08,2.76-1.63,4.12.4,6.1l11,0,2.89.06A3.26,3.26,0,0,0,779.56,1290.73Z" transform="translate(-748.49 -1140.12)"/><path class="cls-2" d="M765.47,1179.94c2.19,2.16,5.48,3.74,4.07,7.78l7.12.26-6.18-3.46.71-1.85c1.68.28,3.35.54,5,.84,2.21.4,4.41.82,6.61,1.24L793.1,1172l1.2-3.3-.94-1.87-3.94-3-1.75-5.94a.83.83,0,0,1-.24-.63c-1.7-.66-3.41-1.87-5.11-1.86a83.79,83.79,0,0,0-9.93,1.11l1.26,10.1-8.44.65c.46,2.61,1,5,1.29,7.44a49.84,49.84,0,0,1,.09,5.19l1.28.4-.26.37-1.06-.73Z" transform="translate(-748.49 -1140.12)"/><path class="cls-3" d="M789.42,1163.83l3.94,3c.1-1,.2-2,.31-2.92,0-2.32.35-4.71-.06-7-.29-1.57-1.57-3-2.48-4.42-.41-.63-1.19-1.08-1.45-1.75a16.18,16.18,0,0,0-23-8.63c-4.83,2.58-9,6.71-12.76,10.8-1.4,1.52-1.4,5.07-.89,7.44.77,3.6,2.54,7,3.88,10.46.79-4.57,6.12-7.15,5.42-12.5-.09-.64,1.84-2.08,3-2.24,6.22-.89,12.47-1.51,18.72-2.19,2.45-.27,3.9.59,3.41,3.36a.83.83,0,0,0,.24.63C792.29,1160.84,792.48,1161.5,789.42,1163.83Z" transform="translate(-748.49 -1140.12)"/><path class="cls-4" d="M794.49,1272.08l5.07.1-6.24,2.53c2.8,1.94,11.25,2,14.46-.32a.94.94,0,0,1,.52-.11l1.23,14.67-25.93,1.61c1.32-1.36,3.66-2.64,3.78-4.1.44-5.77.19-11.6.2-17.41Zm-1.12,10.52c-1.72,5.38-1.76,5.36,3.72,5.38h4c6.66,0,7.61-1,6.4-7.34a4.29,4.29,0,0,0-2.71-2.54c-1.53-.44-3.27-.12-4.93-.12H794A30.67,30.67,0,0,1,793.37,1282.6Z" transform="translate(-748.49 -1140.12)"/><path class="cls-5" d="M766.59,1179.89a49.84,49.84,0,0,0-.09-5.19c-.29-2.43-.83-4.83-1.29-7.44l8.44-.65c-.44-3.56-.85-6.83-1.26-10.1-8.95.55-10.14,6.62-8.95,14.55l-4-3.67-1.73,4.59,1.78,3.93a5,5,0,0,0,.35.83l5.67,3.2h1.08Z" transform="translate(-748.49 -1140.12)"/><path class="cls-6" d="M765.59,1290c-2-2-1.48-3.34-.4-6.1,1.7-4.31,1-9.56,1.28-14.41a76.43,76.43,0,0,0,.12-8.15,38.27,38.27,0,0,0-1-5.34l-3.72.93q.24,6.55.49,13.1c0,.62,0,1.24,0,1.86q-.93,9.63-1.85,19.27l5,.63Z" transform="translate(-748.49 -1140.12)"/><path class="cls-7" d="M756.69,1171.9l1,.08,1.73-4.59,4,3.67c-1.19-7.93,0-14,8.95-14.55a83.79,83.79,0,0,1,9.93-1.11c1.7,0,3.41,1.2,5.11,1.86.49-2.77-1-3.63-3.41-3.36-6.25.68-12.5,1.3-18.72,2.19-1.13.16-3.06,1.6-3,2.24.7,5.35-4.63,7.93-5.42,12.5C756.84,1171.19,756.76,1171.54,756.69,1171.9Z" transform="translate(-748.49 -1140.12)"/><path class="cls-8" d="M827.61,1180c-.33,1-.66,2-1,3q0,3,0,6l6,1.84,1.17-3.12.12-4.47c-.14-1.8-.28-3.61-.41-5.41a1.28,1.28,0,0,1-.74-.41l-1.34-.53a2.63,2.63,0,0,1-.69.13l-2.12.84Z" transform="translate(-748.49 -1140.12)"/><path class="cls-4" d="M765.59,1290l0,1.79,14-1.08a2.71,2.71,0,0,1-.08-.69l-2.9-.06Z" transform="translate(-748.49 -1140.12)"/><path class="cls-9" d="M776.66,1188l-7.12-.26-10,4.37c-.67,1.28-1.35,2.55-2,3.83,1.72,1.11,4.45,1.86,5,3.39,2.36,6.61,5.12,13.35,5.71,20.22.45,5.25,2.14,8.19,6.51,10.22l2.89,1.31-3,4,10,4.85c0-2.87-.1-5.75.18-8.59.51-5.13,1.26-10.24,1.91-15.36q.47-5,.92-10c-.67-4.74-1.67-9.47-1.9-14.23-.15-3.17-1.3-4.18-4.18-3.88Z" transform="translate(-748.49 -1140.12)"/><path class="cls-10" d="M757.54,1240l4.06,4,11,3,5.83,1c2,0,4.36-.61,5.84.27,7.32,4.3,15.26,3.76,23.19,3.65,2.32-3.24,1-6.12-.89-8.94l-4.08.79,1.13,3.85h-7.66c.69-1.53,1.2-2.68,1.71-3.82l-5.08-.83c-2.84.13-6,1.09-8.48.23-5.67-2-11-4.79-16.52-7.26l-2-2h0l-8-3.3Z" transform="translate(-748.49 -1140.12)"/><path class="cls-11" d="M767.57,1236c5.49,2.47,10.85,5.31,16.52,7.26,2.51.86,5.64-.1,8.48-.23l-8-3-10-4.85c-5.43-1.28-7.83-4.45-7.25-10.24.28-2.79-.7-5.71-1-7.93l-13.82.87-1.08,1.11c.69,3,1.39,6.06,2.08,9.09,1.09-2.64-2.5-7.44,2.91-7.84,2.59-.19,5.36,1.89,6.85,2.48.87,4.32,1.57,7.82,2.27,11.31h0Z" transform="translate(-748.49 -1140.12)"/><path class="cls-2" d="M765.55,1234c-.7-3.49-1.4-7-2.27-11.31-1.49-.59-4.26-2.67-6.85-2.48-5.41.4-1.82,5.2-2.91,7.84-.09,4.48-.08,8.93,4,12v-9.35Z" transform="translate(-748.49 -1140.12)"/><path class="cls-12" d="M772.58,1247l-11-3,.27,13,3.72-.93,3-1c-2-4,.36-3.6,3-3Z" transform="translate(-748.49 -1140.12)"/><path class="cls-12" d="M751.44,1218.91l1.08-1.11c-3.09-9.45-1.26-17.41,5-21.88.68-1.28,1.36-2.55,2-3.83C749.62,1196.27,745.05,1211.32,751.44,1218.91Z" transform="translate(-748.49 -1140.12)"/><path class="cls-13" d="M806.55,1243c1.91,2.82,3.21,5.7.89,8.94l-3.9,3c-.55.32-1.14,1-1.64.9-4.42-.57-5.59,1.35-5.51,5.63.06,3.53-1.22,7.08-1.9,10.62l5.07.1,8.28-.24c6-.65,12-1.68,18.06-1.87,8.89-.28,9.29-.3,11.44-8.18l-.69-8.93.09-9.18-6.24-1.72-.62-1-.06-3,1.76-10.21,4-.73.87-7.13c0-1.32,0-2.64.07-4l-3-1.11-9.92.05-8,1.87c-3,.4-5.15,4.84-8.92,2l-12.11,2.41c0,3.91,0,8.21,0,12.51,0,5.28,2.48,7.76,8.18,8l-1.15-1.4C803.26,1241.24,807.47,1237.27,806.55,1243Z" transform="translate(-748.49 -1140.12)"/><path class="cls-14" d="M823.66,1214.89l9.92-.05c1.36-3.15-.67-7.62,3.74-9.58a.41.41,0,0,1,0-.66c-.52-.9-1.05-1.8-1.58-2.7q-.66-3.95-1.33-7.87l-2-2.19c-.94.85-2.77,1.84-2.66,2.53.53,3.48-1.62,4.53-4.14,5.47l.84,3.91,4.12,9.66Z" transform="translate(-748.49 -1140.12)"/><path class="cls-2" d="M835.62,1227l-4,.73c-.63,3.67-1.19,6.94-1.76,10.21l3.4.66.83-4.68c4.57,5.14,2.75-2.74,5.37-2l.31.08-1.14-3.93Z" transform="translate(-748.49 -1140.12)"/><path class="cls-15" d="M837.32,1205.26c-4.41,2-2.38,6.43-3.74,9.58l3,1.11c.41-.5,1.16-1,1.16-1.51C837.68,1211.38,837.47,1208.32,837.32,1205.26Z" transform="translate(-748.49 -1140.12)"/><path class="cls-16" d="M826.3,1272.88c-3.55-.14-7.11-.24-10.66-.41-2.56-.13-5.11-.34-7.66-.51-.07.82-.14,1.62-.2,2.43a.94.94,0,0,1,.52-.11Z" transform="translate(-748.49 -1140.12)"/><path class="cls-17" d="M794.49,1272.08c.68-3.54,2-7.09,1.9-10.62-.08-4.28,1.09-6.2,5.51-5.63.5.07,1.09-.58,1.64-.9l-17-1.06-2.11,1.23c-.65,4.42-1.31,8.84-2,13.53l5.18.42Z" transform="translate(-748.49 -1140.12)"/><path class="cls-9" d="M771.55,1252c-2.6-.55-5-.9-3,3l12,.1C779.21,1249.43,775.09,1251.54,771.55,1252Z" transform="translate(-748.49 -1140.12)"/><path class="cls-14" d="M771.55,1252c3.54-.41,7.66-2.52,9.09,3.15h3.76l2.11-1.23-8.1-5.86-5.83-1C772.23,1248.62,771.89,1250.29,771.55,1252Z" transform="translate(-748.49 -1140.12)"/><path class="cls-6" d="M776.58,1290l2.9.06Z" transform="translate(-748.49 -1140.12)"/><path class="cls-5" d="M776.66,1188l4.84-.1,2.29-2.19-1-.94c-2.2-.42-4.4-.84-6.61-1.24-1.67-.3-3.34-.56-5-.84l-.71,1.85Z" transform="translate(-748.49 -1140.12)"/><path class="cls-7" d="M789.42,1163.83c3.06-2.33,2.87-3-1.75-5.94Q788.54,1160.86,789.42,1163.83Z" transform="translate(-748.49 -1140.12)"/><path class="cls-5" d="M766.55,1179.93l1.06.73.26-.37-1.28-.4Z" transform="translate(-748.49 -1140.12)"/><path class="cls-5" d="M830.68,1177.06a2.63,2.63,0,0,0,.69-.13,2,2,0,0,0,.12-.84c-3.33-.73-4.39.81-3.88,3.9.32-.69.63-1.39.95-2.09Z" transform="translate(-748.49 -1140.12)"/><path class="cls-9" d="M832.71,1177.46a1.28,1.28,0,0,0,.74.41Z" transform="translate(-748.49 -1140.12)"/><path class="cls-18" d="M816.58,1184.65a16,16,0,0,1-3.37.15c-4.21-.72-6.59,1.06-7.46,5.13-.32,1.32-.65,2.63-1,4,.94,1.33,1.89,2.66,2.83,4l3,3.93,6.81,1.13,1.15,1a1.43,1.43,0,0,1,.74,0l1.2-1,1.29-4.86.06-1.28-.07-2.78Z" transform="translate(-748.49 -1140.12)"/><path class="cls-19" d="M816.58,1184.65l5.23,9.38,4.81-1.23V1189q0-3,0-6l-3.27-5.14-6.85-.12Q816.56,1181.2,816.58,1184.65Z" transform="translate(-748.49 -1140.12)"/><path class="cls-19" d="M804.77,1193.88c.33-1.32.66-2.63,1-4q-1.2-3-2.42-6.08l-5.75.27c-.4.94-.79,1.89-1.18,2.84a3.5,3.5,0,0,1,.14,1q-.4,3.93-.79,7.86l-.17.24c0,.65,0,1.31,0,2a7.73,7.73,0,0,1,1,.06l4.38-2.5-.55-1.47Z" transform="translate(-748.49 -1140.12)"/><path class="cls-14" d="M783.79,1185.69l-2.29,2.19c2.88-.3,4,.71,4.18,3.88.23,4.76,1.23,9.49,1.9,14.23,1-1,2.68-1.87,2.74-2.89.14-2.32-.52-4.69-.85-7-2.36-3-2.2-6,0-9Z" transform="translate(-748.49 -1140.12)"/><path class="cls-20" d="M816.51,1177.75l6.85.12c.32-1.95.65-3.9,1-5.85l-.89-1.06h-8.08Z" transform="translate(-748.49 -1140.12)"/><path class="cls-20" d="M789.48,1187.07c-2.21,3-2.37,6,0,9,.38-3.94,2.93-2.62,5.15-2.11-.29-2.3-.57-4.59-.85-6.89Z" transform="translate(-748.49 -1140.12)"/><path class="cls-20" d="M797.58,1184.12l5.75-.27c.1-1.79.21-3.58.33-5.73l-5.2.26C798.15,1180.38,797.86,1182.25,797.58,1184.12Z" transform="translate(-748.49 -1140.12)"/><path class="cls-14" d="M793.77,1187.06l.84,6.89.06,1.78c.31.09.61.19.91.31l.17-.25q.39-3.93.79-7.86a3.5,3.5,0,0,0-.14-1Z" transform="translate(-748.49 -1140.12)"/><path class="cls-6" d="M794,1278a30.67,30.67,0,0,1-.65,4.62c-1.72,5.38-1.76,5.36,3.72,5.38h4c6.66,0,7.61-1,6.4-7.34a4.29,4.29,0,0,0-2.71-2.54c-1.53-.44-3.27-.12-4.93-.12Z" transform="translate(-748.49 -1140.12)"/><path class="cls-6" d="M807.78,1274.39c.06-.81.13-1.61.2-2.43l-.14,0-8.28.24-6.24,2.53C796.12,1276.65,804.57,1276.7,807.78,1274.39Z" transform="translate(-748.49 -1140.12)"/><path class="cls-7" d="M826.62,1189v3.77l-4.81,1.23c0,.93.05,1.86.07,2.78.42-.37.83-.75,1.75-1.59V1200l2-.12c2.52-.94,4.67-2,4.14-5.47-.11-.69,1.72-1.68,2.66-2.53a3,3,0,0,0,.16-1Z" transform="translate(-748.49 -1140.12)"/><path class="cls-9" d="M830.68,1177.06l-2.12.84Z" transform="translate(-748.49 -1140.12)"/><path class="cls-14" d="M757.54,1195.92c-6.28,4.47-8.11,12.43-5,21.88l13.82-.87c.32,2.22,1.3,5.14,1,7.93-.58,5.79,1.82,9,7.25,10.24l3-4-2.89-1.31c-4.37-2-6.06-5-6.51-10.22-.59-6.87-3.35-13.61-5.71-20.22C762,1197.78,759.26,1197,757.54,1195.92Z" transform="translate(-748.49 -1140.12)"/><path class="cls-21" d="M806.55,1243c.92-5.72-3.29-1.75-4.94-2.62l1.15,1.4c-5.7-.29-8.17-2.77-8.18-8,0-4.3,0-8.6,0-12.51l12.11-2.41-5-.75-11-.11-4-1.94c-.65,5.12-1.4,10.23-1.91,15.36-.28,2.84-.13,5.72-.18,8.59l8,3,5.08.83,4.82,0Z" transform="translate(-748.49 -1140.12)"/><path class="cls-22" d="M786.66,1216l4,1.94c-.47-3.78,0-7.14,3.91-9q1-5.43,2-10.86a6.2,6.2,0,0,0-1-.07c-.31-.76-.62-1.51-.92-2.26l-.06-1.78c-2.21-.51-4.76-1.83-5.14,2.11.33,2.35,1,4.72.85,7-.06,1-1.77,1.93-2.74,2.89Q787.13,1211,786.66,1216Z" transform="translate(-748.49 -1140.12)"/><path class="cls-11" d="M778.41,1248l8.1,5.86,17,1.06,3.9-3c-7.93.11-15.87.65-23.19-3.65C782.77,1247.4,780.38,1248.06,778.41,1248Z" transform="translate(-748.49 -1140.12)"/><path class="cls-2" d="M802.47,1243.78l-4.82,0c-.51,1.14-1,2.29-1.71,3.82h7.66Z" transform="translate(-748.49 -1140.12)"/><path class="cls-2" d="M767.57,1236l-2-2Z" transform="translate(-748.49 -1140.12)"/><path class="cls-23" d="M823.66,1214.89l6.91-1.48c-1.41-3.31-2.77-6.48-4.12-9.66l-4.62,2.18-1.07.17-2,.93c-1.72,3-5.32,5.45-3.12,9.73Z" transform="translate(-748.49 -1140.12)"/><path class="cls-24" d="M815.61,1216.76c-2.2-4.28,1.4-6.71,3.12-9.74l-1.2-3a3.1,3.1,0,0,0-1-.08l-7.83,12H797.61l4,2.12,5,.75C810.46,1221.6,812.57,1217.16,815.61,1216.76Z" transform="translate(-748.49 -1140.12)"/><path class="cls-5" d="M839.79,1233.93c-.12-.67-.25-1.34-.37-2-2.62-.69-.8,7.19-5.37,2l-.83,4.68-3.4-.66c0,1,0,2,0,3l.63,1,6.24,1.72,2.85-1.84C839.66,1239.27,839.72,1236.6,839.79,1233.93Z" transform="translate(-748.49 -1140.12)"/><path class="cls-2" d="M830.5,1242.06l-.63-1Z" transform="translate(-748.49 -1140.12)"/><path class="cls-20" d="M821.83,1205.93l4.62-2.18-.84-3.91-2,.12c-.6-.62-1.2-1.25-1.81-1.87l-1.29,4.86v1Z" transform="translate(-748.49 -1140.12)"/><path class="cls-25" d="M794.56,1208.92q1-5.43,2-10.87l4.38-2.5-.55-1.47,4.39-.2c.94,1.33,1.89,2.66,2.83,4a9.88,9.88,0,0,0,0,2.49c.49,1.79,1,4.92,1.8,5,2,.25,4.13-.91,6.21-1.5.32,0,.64,0,1,.07l-7.83,12H797.61Zm7.6-8.45v.92h2.91v-.92Z" transform="translate(-748.49 -1140.12)"/><path class="cls-24" d="M807.6,1197.88a9.88,9.88,0,0,0,0,2.49c.49,1.79,1,4.92,1.8,5,2,.25,4.13-.91,6.21-1.5l1.83-1-6.81-1.13Z" transform="translate(-748.49 -1140.12)"/><path class="cls-11" d="M817.53,1204.05l1.2,3,2-.92c-.08-.71-.16-1.42-.23-2.13v0l-1.2,0a1.43,1.43,0,0,0-.74,0Z" transform="translate(-748.49 -1140.12)"/><path class="cls-3" d="M821.82,1198.09c.61.62,1.21,1.25,1.81,1.87v-4.74c-.92.84-1.33,1.22-1.75,1.59Z" transform="translate(-748.49 -1140.12)"/><path class="cls-26" d="M817.53,1204.05l1.06-.13-1.15-1-1.83,1c.32,0,.64,0,1,.07A3.1,3.1,0,0,1,817.53,1204.05Z" transform="translate(-748.49 -1140.12)"/><path class="cls-3" d="M819.33,1204l1.2,0v-1Z" transform="translate(-748.49 -1140.12)"/><path class="cls-8" d="M796.54,1187.93q-.4,3.93-.79,7.86Q796.14,1191.86,796.54,1187.93Z" transform="translate(-748.49 -1140.12)"/><path class="cls-20" d="M794.67,1195.73c.3.75.61,1.5.92,2.26,0-.65,0-1.31,0-2C795.28,1195.92,795,1195.82,794.67,1195.73Z" transform="translate(-748.49 -1140.12)"/><path class="cls-26" d="M797.61,1215.93l-3.05-7c-3.89,1.88-4.38,5.24-3.91,9l11,.11Z" transform="translate(-748.49 -1140.12)"/><path class="cls-3" d="M820.53,1204c.07.71.15,1.42.23,2.13l1.07-.17C821.39,1205.28,821,1204.62,820.53,1204Z" transform="translate(-748.49 -1140.12)"/><ellipse class="cls-24" cx="55.12" cy="60.82" rx="2.06" ry="0.65"/></svg>